<mxfile host="app.diagrams.net" modified="2020-03-25T08:51:18.381Z" agent="Mozilla/5.0 (X11; Ubuntu; Linux x86_64; rv:74.0) Gecko/20100101 Firefox/74.0" etag="gUtHPeA9iZy6dOoG9G1S" version="12.9.2" type="github">
  <diagram id="C5RBs43oDa-KdzZeNtuy" name="Page-1">
    <mxGraphModel dx="2249" dy="770" grid="1" gridSize="10" guides="1" tooltips="1" connect="1" arrows="1" fold="1" page="1" pageScale="1" pageWidth="827" pageHeight="1169" math="0" shadow="0">
      <root>
        <mxCell id="WIyWlLk6GJQsqaUBKTNV-0" />
        <mxCell id="WIyWlLk6GJQsqaUBKTNV-1" parent="WIyWlLk6GJQsqaUBKTNV-0" />
        <mxCell id="WIyWlLk6GJQsqaUBKTNV-5" value="No" style="edgeStyle=orthogonalEdgeStyle;rounded=0;html=1;jettySize=auto;orthogonalLoop=1;fontSize=11;endArrow=block;endFill=0;endSize=8;strokeWidth=1;shadow=0;labelBackgroundColor=none;noLabel=1;fontColor=none;" parent="WIyWlLk6GJQsqaUBKTNV-1" source="WIyWlLk6GJQsqaUBKTNV-6" target="WIyWlLk6GJQsqaUBKTNV-7" edge="1">
          <mxGeometry y="10" relative="1" as="geometry">
            <mxPoint as="offset" />
          </mxGeometry>
        </mxCell>
        <mxCell id="WIyWlLk6GJQsqaUBKTNV-6" value="Programmer Creates Modelling" style="rhombus;whiteSpace=wrap;html=1;shadow=0;fontFamily=Helvetica;fontSize=12;align=center;strokeWidth=1;spacing=6;spacingTop=-4;" parent="WIyWlLk6GJQsqaUBKTNV-1" vertex="1">
          <mxGeometry x="120" y="280" width="140" height="190" as="geometry" />
        </mxCell>
        <mxCell id="WIyWlLk6GJQsqaUBKTNV-7" value="Programmer Creates a Program to run the modelling" style="rounded=1;whiteSpace=wrap;html=1;fontSize=12;glass=0;strokeWidth=1;shadow=0;" parent="WIyWlLk6GJQsqaUBKTNV-1" vertex="1">
          <mxGeometry x="300" y="347.5" width="130" height="55" as="geometry" />
        </mxCell>
        <mxCell id="WIyWlLk6GJQsqaUBKTNV-11" value="Programmer" style="rounded=1;whiteSpace=wrap;html=1;fontSize=12;glass=0;strokeWidth=1;shadow=0;" parent="WIyWlLk6GJQsqaUBKTNV-1" vertex="1">
          <mxGeometry x="-60" y="355" width="120" height="40" as="geometry" />
        </mxCell>
        <mxCell id="WIyWlLk6GJQsqaUBKTNV-8" value="No" style="rounded=0;html=1;jettySize=auto;orthogonalLoop=1;fontSize=11;endArrow=block;endFill=0;endSize=8;strokeWidth=1;shadow=0;labelBackgroundColor=none;edgeStyle=orthogonalEdgeStyle;entryX=0;entryY=0.5;entryDx=0;entryDy=0;noLabel=1;fontColor=none;" parent="WIyWlLk6GJQsqaUBKTNV-1" source="WIyWlLk6GJQsqaUBKTNV-11" target="WIyWlLk6GJQsqaUBKTNV-6" edge="1">
          <mxGeometry x="0.3333" y="20" relative="1" as="geometry">
            <mxPoint as="offset" />
            <mxPoint x="220" y="510" as="targetPoint" />
          </mxGeometry>
        </mxCell>
        <mxCell id="Z3gj1iSJoAaqTAsvZlQO-23" value="" style="endArrow=classic;html=1;fontColor=none;exitX=1;exitY=0.5;exitDx=0;exitDy=0;entryX=0;entryY=0.5;entryDx=0;entryDy=0;" parent="WIyWlLk6GJQsqaUBKTNV-1" source="WIyWlLk6GJQsqaUBKTNV-7" target="Z3gj1iSJoAaqTAsvZlQO-26" edge="1">
          <mxGeometry width="50" height="50" relative="1" as="geometry">
            <mxPoint x="390" y="530" as="sourcePoint" />
            <mxPoint x="640" y="375" as="targetPoint" />
          </mxGeometry>
        </mxCell>
        <mxCell id="Z3gj1iSJoAaqTAsvZlQO-24" value="Expected Output/Hypothosis" style="shape=hexagon;perimeter=hexagonPerimeter2;whiteSpace=wrap;html=1;fontColor=none;" parent="WIyWlLk6GJQsqaUBKTNV-1" vertex="1">
          <mxGeometry x="600" y="335" width="120" height="80" as="geometry" />
        </mxCell>
        <mxCell id="Z3gj1iSJoAaqTAsvZlQO-25" value="&lt;div&gt;Input&lt;/div&gt;&lt;div&gt;&lt;br&gt;&lt;/div&gt;" style="shape=note;whiteSpace=wrap;html=1;backgroundOutline=1;darkOpacity=0.05;fontColor=none;" parent="WIyWlLk6GJQsqaUBKTNV-1" vertex="1">
          <mxGeometry x="160" y="150" width="80" height="100" as="geometry" />
        </mxCell>
        <mxCell id="Z3gj1iSJoAaqTAsvZlQO-26" value="&lt;div&gt;Computer&lt;/div&gt;&lt;div&gt;runs modelling Program&lt;br&gt;&lt;/div&gt;" style="ellipse;whiteSpace=wrap;html=1;aspect=fixed;fontColor=none;" parent="WIyWlLk6GJQsqaUBKTNV-1" vertex="1">
          <mxGeometry x="460" y="330" width="90" height="90" as="geometry" />
        </mxCell>
        <mxCell id="Z3gj1iSJoAaqTAsvZlQO-27" value="" style="endArrow=classic;html=1;fontColor=none;exitX=1;exitY=0.5;exitDx=0;exitDy=0;entryX=0;entryY=0.5;entryDx=0;entryDy=0;" parent="WIyWlLk6GJQsqaUBKTNV-1" source="Z3gj1iSJoAaqTAsvZlQO-26" target="Z3gj1iSJoAaqTAsvZlQO-24" edge="1">
          <mxGeometry width="50" height="50" relative="1" as="geometry">
            <mxPoint x="390" y="530" as="sourcePoint" />
            <mxPoint x="440" y="480" as="targetPoint" />
          </mxGeometry>
        </mxCell>
        <mxCell id="Z3gj1iSJoAaqTAsvZlQO-28" value="" style="endArrow=classic;html=1;fontColor=none;exitX=0;exitY=1;exitDx=0;exitDy=0;exitPerimeter=0;entryX=0.5;entryY=0;entryDx=0;entryDy=0;" parent="WIyWlLk6GJQsqaUBKTNV-1" source="Z3gj1iSJoAaqTAsvZlQO-25" target="WIyWlLk6GJQsqaUBKTNV-11" edge="1">
          <mxGeometry width="50" height="50" relative="1" as="geometry">
            <mxPoint x="390" y="530" as="sourcePoint" />
            <mxPoint x="440" y="480" as="targetPoint" />
          </mxGeometry>
        </mxCell>
        <mxCell id="Z3gj1iSJoAaqTAsvZlQO-29" value="" style="endArrow=classic;html=1;fontColor=none;exitX=1;exitY=1;exitDx=0;exitDy=0;exitPerimeter=0;entryX=0.5;entryY=0;entryDx=0;entryDy=0;" parent="WIyWlLk6GJQsqaUBKTNV-1" source="Z3gj1iSJoAaqTAsvZlQO-25" target="WIyWlLk6GJQsqaUBKTNV-7" edge="1">
          <mxGeometry width="50" height="50" relative="1" as="geometry">
            <mxPoint x="390" y="530" as="sourcePoint" />
            <mxPoint x="440" y="480" as="targetPoint" />
          </mxGeometry>
        </mxCell>
        <mxCell id="Z3gj1iSJoAaqTAsvZlQO-36" value="Expected Output/Hypothosis" style="shape=hexagon;perimeter=hexagonPerimeter2;whiteSpace=wrap;html=1;fontColor=none;" parent="WIyWlLk6GJQsqaUBKTNV-1" vertex="1">
          <mxGeometry x="580" y="805" width="120" height="80" as="geometry" />
        </mxCell>
        <mxCell id="Z3gj1iSJoAaqTAsvZlQO-38" value="&lt;div&gt;Computer&lt;/div&gt;&lt;div&gt;&lt;br&gt;&lt;/div&gt;" style="ellipse;whiteSpace=wrap;html=1;aspect=fixed;fontColor=none;" parent="WIyWlLk6GJQsqaUBKTNV-1" vertex="1">
          <mxGeometry x="90" y="805" width="80" height="80" as="geometry" />
        </mxCell>
        <mxCell id="Z3gj1iSJoAaqTAsvZlQO-42" value="Known &lt;br&gt;&lt;div&gt;Input&lt;/div&gt;&lt;div&gt;&lt;br&gt;&lt;/div&gt;" style="shape=note;whiteSpace=wrap;html=1;backgroundOutline=1;darkOpacity=0.05;fontColor=none;" parent="WIyWlLk6GJQsqaUBKTNV-1" vertex="1">
          <mxGeometry x="-70" y="675" width="80" height="100" as="geometry" />
        </mxCell>
        <mxCell id="Z3gj1iSJoAaqTAsvZlQO-44" value="&lt;div&gt;Previously&lt;/div&gt;&lt;div&gt;Known &lt;/div&gt;&lt;div&gt;Output&lt;/div&gt;" style="shape=card;whiteSpace=wrap;html=1;fontColor=none;" parent="WIyWlLk6GJQsqaUBKTNV-1" vertex="1">
          <mxGeometry x="-70" y="900" width="80" height="100" as="geometry" />
        </mxCell>
        <mxCell id="Z3gj1iSJoAaqTAsvZlQO-45" value="" style="endArrow=classic;html=1;fontColor=none;exitX=1;exitY=0.5;exitDx=0;exitDy=0;exitPerimeter=0;entryX=0;entryY=1;entryDx=0;entryDy=0;" parent="WIyWlLk6GJQsqaUBKTNV-1" source="Z3gj1iSJoAaqTAsvZlQO-44" target="Z3gj1iSJoAaqTAsvZlQO-38" edge="1">
          <mxGeometry width="50" height="50" relative="1" as="geometry">
            <mxPoint x="370" y="785" as="sourcePoint" />
            <mxPoint x="420" y="735" as="targetPoint" />
          </mxGeometry>
        </mxCell>
        <mxCell id="Z3gj1iSJoAaqTAsvZlQO-46" value="" style="endArrow=classic;html=1;fontColor=none;exitX=0;exitY=0;exitDx=80;exitDy=65;exitPerimeter=0;entryX=0;entryY=0;entryDx=0;entryDy=0;" parent="WIyWlLk6GJQsqaUBKTNV-1" source="Z3gj1iSJoAaqTAsvZlQO-42" target="Z3gj1iSJoAaqTAsvZlQO-38" edge="1">
          <mxGeometry width="50" height="50" relative="1" as="geometry">
            <mxPoint x="370" y="785" as="sourcePoint" />
            <mxPoint x="420" y="735" as="targetPoint" />
          </mxGeometry>
        </mxCell>
        <mxCell id="Z3gj1iSJoAaqTAsvZlQO-47" value="Programmer Generates Modelling" style="rounded=1;whiteSpace=wrap;html=1;fontSize=12;glass=0;strokeWidth=1;shadow=0;" parent="WIyWlLk6GJQsqaUBKTNV-1" vertex="1">
          <mxGeometry x="240" y="817.5" width="130" height="55" as="geometry" />
        </mxCell>
        <mxCell id="Z3gj1iSJoAaqTAsvZlQO-48" value="" style="endArrow=classic;html=1;fontColor=none;exitX=1;exitY=0.5;exitDx=0;exitDy=0;entryX=0;entryY=0.5;entryDx=0;entryDy=0;" parent="WIyWlLk6GJQsqaUBKTNV-1" source="Z3gj1iSJoAaqTAsvZlQO-38" target="Z3gj1iSJoAaqTAsvZlQO-47" edge="1">
          <mxGeometry width="50" height="50" relative="1" as="geometry">
            <mxPoint x="370" y="785" as="sourcePoint" />
            <mxPoint x="420" y="735" as="targetPoint" />
          </mxGeometry>
        </mxCell>
        <mxCell id="Z3gj1iSJoAaqTAsvZlQO-49" value="" style="endArrow=classic;html=1;fontColor=none;exitX=1;exitY=0.5;exitDx=0;exitDy=0;entryX=0;entryY=0.5;entryDx=0;entryDy=0;" parent="WIyWlLk6GJQsqaUBKTNV-1" source="Z3gj1iSJoAaqTAsvZlQO-47" target="Z3gj1iSJoAaqTAsvZlQO-54" edge="1">
          <mxGeometry width="50" height="50" relative="1" as="geometry">
            <mxPoint x="370" y="785" as="sourcePoint" />
            <mxPoint x="420" y="735" as="targetPoint" />
          </mxGeometry>
        </mxCell>
        <mxCell id="Z3gj1iSJoAaqTAsvZlQO-50" value="&lt;div style=&quot;font-size: 14px&quot;&gt;&lt;b&gt;&lt;font style=&quot;font-size: 14px&quot;&gt;Machine Learning Paradigm&lt;/font&gt;&lt;/b&gt;&lt;/div&gt;" style="rounded=0;whiteSpace=wrap;html=1;fontColor=none;" parent="WIyWlLk6GJQsqaUBKTNV-1" vertex="1">
          <mxGeometry x="180" y="560" width="270" height="50" as="geometry" />
        </mxCell>
        <mxCell id="Z3gj1iSJoAaqTAsvZlQO-53" value="&lt;font size=&quot;1&quot;&gt;&lt;b style=&quot;font-size: 14px&quot;&gt;Traditional Programming Paradigm&lt;/b&gt;&lt;/font&gt;" style="rounded=0;whiteSpace=wrap;html=1;fontColor=none;" parent="WIyWlLk6GJQsqaUBKTNV-1" vertex="1">
          <mxGeometry x="200" y="90" width="270" height="50" as="geometry" />
        </mxCell>
        <mxCell id="Z3gj1iSJoAaqTAsvZlQO-54" value="Model Predicts future outcomes" style="ellipse;whiteSpace=wrap;html=1;aspect=fixed;fontColor=none;" parent="WIyWlLk6GJQsqaUBKTNV-1" vertex="1">
          <mxGeometry x="440" y="805" width="80" height="80" as="geometry" />
        </mxCell>
        <mxCell id="Z3gj1iSJoAaqTAsvZlQO-57" value="&lt;div&gt;Current Input&lt;/div&gt;" style="shape=note;whiteSpace=wrap;html=1;backgroundOutline=1;darkOpacity=0.05;fontColor=none;" parent="WIyWlLk6GJQsqaUBKTNV-1" vertex="1">
          <mxGeometry x="394" y="635" width="80" height="100" as="geometry" />
        </mxCell>
        <mxCell id="Z3gj1iSJoAaqTAsvZlQO-58" value="" style="endArrow=classic;html=1;fontColor=none;exitX=0.5;exitY=1;exitDx=0;exitDy=0;exitPerimeter=0;entryX=0.5;entryY=0;entryDx=0;entryDy=0;" parent="WIyWlLk6GJQsqaUBKTNV-1" source="Z3gj1iSJoAaqTAsvZlQO-57" target="Z3gj1iSJoAaqTAsvZlQO-54" edge="1">
          <mxGeometry width="50" height="50" relative="1" as="geometry">
            <mxPoint x="360" y="700" as="sourcePoint" />
            <mxPoint x="410" y="650" as="targetPoint" />
          </mxGeometry>
        </mxCell>
        <mxCell id="Z3gj1iSJoAaqTAsvZlQO-59" value="" style="endArrow=classic;html=1;fontColor=none;exitX=1;exitY=0.5;exitDx=0;exitDy=0;entryX=0;entryY=0.5;entryDx=0;entryDy=0;" parent="WIyWlLk6GJQsqaUBKTNV-1" source="Z3gj1iSJoAaqTAsvZlQO-54" target="Z3gj1iSJoAaqTAsvZlQO-36" edge="1">
          <mxGeometry width="50" height="50" relative="1" as="geometry">
            <mxPoint x="530" y="830" as="sourcePoint" />
            <mxPoint x="580" y="780" as="targetPoint" />
          </mxGeometry>
        </mxCell>
      </root>
    </mxGraphModel>
  </diagram>
</mxfile>
